<?xml version="1.0" encoding="UTF-8" standalone="no"?>
<!DOCTYPE svg PUBLIC "-//W3C//DTD SVG 1.1//EN" "http://www.w3.org/Graphics/SVG/1.1/DTD/svg11.dtd">
<svg width="100%" height="100%" viewBox="0 0 706 128" version="1.1" xmlns="http://www.w3.org/2000/svg" xmlns:xlink="http://www.w3.org/1999/xlink" xml:space="preserve" xmlns:serif="http://www.serif.com/" style="fill-rule:evenodd;clip-rule:evenodd;stroke-linecap:round;stroke-linejoin:round;stroke-miterlimit:1.5;">
    <g transform="matrix(1,0,0,1,-244,-1236)">
        <g transform="matrix(1.06902,0,0,1.00794,2.73559e-13,900)">
            <g id="Logo-Horizontal-Black" serif:id="Logo Horizontal Black" transform="matrix(0.515568,0,0,0.515568,166.005,205.069)">
                <g transform="matrix(1.75295,5.29753e-48,-2.49741e-48,1.85919,-466.131,-315.715)">
                    <g transform="matrix(66.704,0,0,66.704,501.605,395.846)">
                        <path d="M0.084,-0.071C0.084,-0.028 0.118,0.006 0.161,0.006C0.204,0.006 0.238,-0.028 0.238,-0.071L0.238,-0.281L0.522,-0.281L0.522,-0.071C0.522,-0.028 0.556,0.006 0.599,0.006C0.642,0.006 0.676,-0.028 0.676,-0.071L0.676,-0.629C0.676,-0.672 0.642,-0.706 0.599,-0.706C0.556,-0.706 0.522,-0.672 0.522,-0.629L0.522,-0.423L0.238,-0.423L0.238,-0.629C0.238,-0.672 0.204,-0.706 0.161,-0.706C0.118,-0.706 0.084,-0.672 0.084,-0.629L0.084,-0.071Z" style="fill:rgb(13,13,13);fill-rule:nonzero;"/>
                    </g>
                    <g transform="matrix(66.704,0,0,66.704,565.64,395.846)">
                        <path d="M0.091,-0.071C0.091,-0.028 0.125,0.006 0.168,0.006C0.211,0.006 0.245,-0.028 0.245,-0.071L0.245,-0.629C0.245,-0.672 0.211,-0.706 0.168,-0.706C0.125,-0.706 0.091,-0.672 0.091,-0.629L0.091,-0.071Z" style="fill:rgb(13,13,13);fill-rule:nonzero;"/>
                    </g>
                    <g transform="matrix(66.704,0,0,66.704,601.394,395.846)">
                        <path d="M0.161,0L0.554,0C0.592,0 0.623,-0.03 0.623,-0.068C0.623,-0.106 0.592,-0.137 0.554,-0.137L0.237,-0.137L0.237,-0.284L0.504,-0.284C0.542,-0.284 0.573,-0.314 0.573,-0.352C0.573,-0.39 0.542,-0.421 0.504,-0.421L0.237,-0.421L0.237,-0.563L0.549,-0.563C0.587,-0.563 0.618,-0.593 0.618,-0.631C0.618,-0.669 0.587,-0.7 0.549,-0.7L0.161,-0.7C0.118,-0.7 0.084,-0.666 0.084,-0.623L0.084,-0.077C0.084,-0.034 0.118,0 0.161,0Z" style="fill:rgb(13,13,13);fill-rule:nonzero;"/>
                    </g>
                    <g transform="matrix(66.704,0,0,66.704,659.426,395.846)">
                        <path d="M0.084,-0.071C0.084,-0.028 0.118,0.006 0.161,0.006C0.204,0.006 0.238,-0.028 0.238,-0.071L0.238,-0.224L0.361,-0.224L0.511,-0.034C0.529,-0.011 0.552,0.006 0.587,0.006C0.624,0.006 0.66,-0.022 0.66,-0.065C0.66,-0.089 0.65,-0.105 0.635,-0.124L0.528,-0.254C0.613,-0.289 0.668,-0.357 0.668,-0.467L0.668,-0.469C0.668,-0.535 0.647,-0.59 0.608,-0.629C0.562,-0.675 0.493,-0.7 0.404,-0.7L0.161,-0.7C0.118,-0.7 0.084,-0.666 0.084,-0.623L0.084,-0.071ZM0.238,-0.36L0.238,-0.561L0.391,-0.561C0.466,-0.561 0.512,-0.527 0.512,-0.461L0.512,-0.459C0.512,-0.4 0.469,-0.36 0.394,-0.36L0.238,-0.36Z" style="fill:rgb(13,13,13);fill-rule:nonzero;"/>
                    </g>
                    <g transform="matrix(66.704,0,0,66.704,720.994,395.846)">
                        <path d="M0.424,0.012C0.64,0.012 0.797,-0.151 0.797,-0.35L0.797,-0.352C0.797,-0.551 0.642,-0.712 0.426,-0.712C0.21,-0.712 0.053,-0.549 0.053,-0.35L0.053,-0.348C0.053,-0.149 0.208,0.012 0.424,0.012ZM0.426,-0.13C0.302,-0.13 0.214,-0.23 0.214,-0.35L0.214,-0.352C0.214,-0.472 0.3,-0.57 0.424,-0.57C0.548,-0.57 0.636,-0.47 0.636,-0.35L0.636,-0.348C0.636,-0.228 0.55,-0.13 0.426,-0.13Z" style="fill:rgb(13,13,13);fill-rule:nonzero;"/>
                    </g>
                    <g transform="matrix(66.704,0,0,66.704,791.033,395.846)">
                        <path d="M0.421,0.012C0.526,0.012 0.609,-0.023 0.666,-0.058C0.703,-0.08 0.72,-0.111 0.72,-0.156L0.72,-0.326C0.72,-0.369 0.686,-0.403 0.643,-0.403L0.467,-0.403C0.43,-0.403 0.4,-0.373 0.4,-0.336C0.4,-0.299 0.43,-0.27 0.467,-0.27L0.571,-0.27L0.571,-0.17C0.532,-0.142 0.482,-0.128 0.426,-0.128C0.302,-0.128 0.214,-0.222 0.214,-0.35L0.214,-0.352C0.214,-0.471 0.303,-0.57 0.415,-0.57C0.481,-0.57 0.526,-0.552 0.568,-0.522C0.579,-0.514 0.593,-0.506 0.615,-0.506C0.657,-0.506 0.691,-0.54 0.691,-0.582C0.691,-0.612 0.674,-0.633 0.659,-0.644C0.596,-0.688 0.526,-0.712 0.42,-0.712C0.208,-0.712 0.053,-0.549 0.053,-0.35L0.053,-0.348C0.053,-0.141 0.203,0.012 0.421,0.012Z" style="fill:rgb(13,13,13);fill-rule:nonzero;"/>
                    </g>
                    <g transform="matrix(66.704,0,0,66.704,856.67,395.846)">
                        <path d="M0.084,-0.077C0.084,-0.034 0.118,0 0.161,0L0.523,0C0.562,0 0.593,-0.031 0.593,-0.07C0.593,-0.109 0.562,-0.14 0.523,-0.14L0.238,-0.14L0.238,-0.629C0.238,-0.672 0.204,-0.706 0.161,-0.706C0.118,-0.706 0.084,-0.672 0.084,-0.629L0.084,-0.077Z" style="fill:rgb(13,13,13);fill-rule:nonzero;"/>
                    </g>
                    <g transform="matrix(66.704,0,0,66.704,903.296,395.846)">
                        <path d="M0.267,-0.071C0.267,-0.028 0.301,0.006 0.344,0.006C0.387,0.006 0.421,-0.028 0.421,-0.071L0.421,-0.273L0.647,-0.578C0.657,-0.592 0.667,-0.611 0.667,-0.632C0.667,-0.674 0.639,-0.707 0.592,-0.707C0.56,-0.707 0.537,-0.689 0.518,-0.661L0.345,-0.414L0.175,-0.659C0.156,-0.687 0.134,-0.706 0.099,-0.706C0.056,-0.706 0.022,-0.673 0.022,-0.632C0.022,-0.61 0.03,-0.592 0.041,-0.577L0.267,-0.27L0.267,-0.071Z" style="fill:rgb(13,13,13);fill-rule:nonzero;"/>
                    </g>
                    <g transform="matrix(66.704,0,0,66.704,962.529,395.846)">
                        <path d="M0.084,-0.071C0.084,-0.028 0.118,0.006 0.161,0.006C0.204,0.006 0.238,-0.028 0.238,-0.071L0.238,-0.21L0.355,-0.21C0.512,-0.21 0.638,-0.294 0.638,-0.456L0.638,-0.458C0.638,-0.601 0.537,-0.7 0.37,-0.7L0.161,-0.7C0.118,-0.7 0.084,-0.666 0.084,-0.623L0.084,-0.071ZM0.238,-0.347L0.238,-0.561L0.357,-0.561C0.434,-0.561 0.482,-0.524 0.482,-0.455L0.482,-0.453C0.482,-0.393 0.437,-0.347 0.36,-0.347L0.238,-0.347Z" style="fill:rgb(13,13,13);fill-rule:nonzero;"/>
                    </g>
                    <g transform="matrix(66.704,0,0,66.704,1020.43,395.846)">
                        <path d="M0.084,-0.071C0.084,-0.028 0.118,0.006 0.161,0.006C0.204,0.006 0.238,-0.028 0.238,-0.071L0.238,-0.281L0.522,-0.281L0.522,-0.071C0.522,-0.028 0.556,0.006 0.599,0.006C0.642,0.006 0.676,-0.028 0.676,-0.071L0.676,-0.629C0.676,-0.672 0.642,-0.706 0.599,-0.706C0.556,-0.706 0.522,-0.672 0.522,-0.629L0.522,-0.423L0.238,-0.423L0.238,-0.629C0.238,-0.672 0.204,-0.706 0.161,-0.706C0.118,-0.706 0.084,-0.672 0.084,-0.629L0.084,-0.071Z" style="fill:rgb(13,13,13);fill-rule:nonzero;"/>
                    </g>
                </g>
                <g id="Symbol-Black" serif:id="Symbol Black" transform="matrix(0.723469,0,0,0.723469,-126.955,182.601)">
                    <g transform="matrix(1.07459,0,0,1.13971,-64.8611,-34.0966)">
                        <path d="M613.363,174.637C666.419,174.637 692.272,227.431 692.272,227.431C692.272,227.431 666.419,280.225 613.363,280.225C560.307,280.225 534.453,227.431 534.453,227.431C534.453,227.431 560.307,174.637 613.363,174.637Z" style="fill:none;stroke:rgb(13,13,13);stroke-width:25.39px;"/>
                    </g>
                    <g transform="matrix(1.95207,0,0,2.23653,-603.077,-283.546)">
                        <path d="M492.027,200.528C492.027,200.528 492.027,200.528 492.027,200.528C521.76,200.927 551.183,194.891 577.949,182.899C588.082,178.26 600.267,174.637 613.363,174.637C630.788,174.637 645.28,180.332 656.884,187.981" style="fill:none;stroke:rgb(13,13,13);stroke-width:13.43px;"/>
                    </g>
                    <g transform="matrix(0.935433,0,0,0.992126,0,0)">
                        <path d="M382.063,226.897L544.621,226.897" style="fill:none;stroke:rgb(13,13,13);stroke-width:29.17px;"/>
                    </g>
                    <g transform="matrix(0.935433,0,0,0.992126,101.752,100.69)">
                        <path d="M526.493,317.716L526.493,186.056" style="fill:none;stroke:rgb(13,13,13);stroke-width:29.17px;"/>
                    </g>
                    <g transform="matrix(0.935433,0,0,0.992126,-32.254,-6.45449)">
                        <path d="M634.308,286.651L510.468,410.491C489.379,431.58 455.136,431.58 434.046,410.491C412.957,389.402 410.611,357.505 429.675,338.441C448.739,319.377 472.212,327.514 480.803,338.441C488.509,348.243 492.774,368.733 478.08,383.427" style="fill:none;stroke:rgb(13,13,13);stroke-width:29.17px;"/>
                    </g>
                    <g transform="matrix(0.37222,0,0,0.394779,365.945,135.325)">
                        <circle cx="613.363" cy="227.431" r="61.499" style="fill:rgb(13,13,13);"/>
                    </g>
                </g>
            </g>
        </g>
    </g>
</svg>
